{"title":"Dard Divorce-AC3-XviD-DVDRip 2007 TBS","uid":6292009,"size":1566752354,"categoryP":"video","categoryS":"movies","magnet":"?xt=urn:btih:8e75ccb410b721110e94fcc5e298849c93c7563a&amp;dn=Dard+Divorce-AC3-XviD-DVDRip+2007+TBS&amp;tr=udp%3A%2F%2Ftracker.openbittorrent.com%3A80&amp;tr=udp%3A%2F%2Fopen.demonii.com%3A1337&amp;tr=udp%3A%2F%2Ftracker.coppersurfer.tk%3A6969&amp;tr=udp%3A%2F%2Fexodus.desync.com%3A6969","seeders":0,"leechers":1,"uploader":"FatFreddy30","files":-1,"time":1301853484,"description":"What started with a routine divorce between Natalie Stein and her husband Tim, will soon take a turn into the unexpected and evolve into scenes of torture, bloodshed and slaughter...\n &lt;a href=&quot;\nhttp://www.imdb.com/title/tt0936468/&quot; rel=&quot;nofollow&quot; target=&quot;_NEW&quot;&gt;\nhttp://www.imdb.com/title/tt0936468/&lt;/a&gt;\n\nSubtitles: Dutch, English.\n\n\nNathalie woont sinds de scheiding van haar man met haar beide kinderen buiten de stad. Tim zou de kinderen nog eens willen zien, voordat het juridische gevecht over het zorgrecht de laatste fase ingaat. Hij zou als gevolg daarvan het bezoekrecht wel eens kunnen verliezen. Nathalie heeft eigenlijk weinig vertrouwen in deze ontmoeting, maar ze past zich aan zijn wens aan. Als Tim bij zijn gezin aankomt, barst de hel los. In de eenzame, uitgestrekte omgeving van haar huis moet Nathalie met alle middelen voor haar leven en dat van haar kinderen vechten...\n &lt;a href=&quot;\nhttp://www.moviemeter.nl/film/49262&quot; rel=&quot;nofollow&quot; target=&quot;_NEW&quot;&gt;\nhttp://www.moviemeter.nl/film/49262&lt;/a&gt;\n\nOndertitels: Engels, Nederlands.\n\nGeneral\nComplete name                    : Dard Divorce-AC3-XviD-DVDRip 2007.avi\nFormat                           : AVI\nFormat/Info                      : Audio Video Interleave\nFile size                        : 1.46 GiB\nDuration                         : 1h 26mn\nOverall bit rate                 : 2 401 Kbps\nWriting application              : VirtualDubMod 1.5.4.1 (build 2178/release)\nWriting library                  : VirtualDubMod build 2178/release\nSource                           : Pal Retail\n\nVideo\nID                               : 0\nFormat                           : MPEG-4 Visual\nFormat profile                   : Simple@L3\nFormat settings, BVOP            : No\nFormat settings, QPel            : No\nFormat settings, GMC             : No warppoints\nFormat settings, Matrix          : Default (H.263)\nCodec ID                         : XVID\nCodec ID/Hint                    : XviD\nDuration                         : 1h 26mn\nBit rate                         : 1 943 Kbps\nWidth                            : 720 pixels\nHeight                           : 400 pixels\nDisplay aspect ratio             : 16:9\nFrame rate                       : 25.000 fps\nResolution                       : 8 bits\nColorimetry                      : 4:2:0\nScan type                        : Progressive\nBits/(Pixel*Frame)               : 0.270\nStream size                      : 1.18 GiB (81%)\nWriting library                  : XviD 1.1.2 (UTC 2006-11-01)\n\nAudio\nID                               : 1\nFormat                           : AC-3\nFormat/Info                      : Audio Coding 3\nCodec ID                         : 2000\nDuration                         : 1h 26mn\nBit rate mode                    : Constant\nBit rate                         : 448 Kbps\nChannel(s)                       : 6 channels\nChannel positions                : Front: L C R, Surround: L R, LFE\nSampling rate                    : 48.0 KHz\nStream size                      : 279 MiB (19%)\nAlignment                        : Split accross interleaves\nInterleave, duration             : 40 ms (1.00 video frame)\nInterleave, preload duration     : 500 ms\n\nEnjoy...\n\nTBS","torrent":{"xt":"urn:btih:8e75ccb410b721110e94fcc5e298849c93c7563a","amp;dn":"Dard+Divorce-AC3-XviD-DVDRip+2007+TBS","amp;tr":["udp%3A%2F%2Ftracker.openbittorrent.com%3A80","udp%3A%2F%2Fopen.demonii.com%3A1337","udp%3A%2F%2Ftracker.coppersurfer.tk%3A6969","udp%3A%2F%2Fexodus.desync.com%3A6969"],"infoHash":"8e75ccb410b721110e94fcc5e298849c93c7563a","infoHashBuffer":{"type":"Buffer","data":[142,117,204,180,16,183,33,17,14,148,252,197,226,152,132,156,147,199,86,58]},"announce":[],"urlList":[]}}